<svg xmlns="http://www.w3.org/2000/svg" fill="none" viewBox="90 90 900 900"><g fill="#fff"><title>Face/ 4</title><path fill-rule="evenodd" stroke="#000" stroke-linecap="round" stroke-linejoin="round" stroke-width="24" d="M532 379c132.548 0 240 107.452 240 240s-7.452 280-180 280c-129.285 0-233.252-82.78-277.26-180.046q-1.363.046-2.74.046c-44.183 0-80-35.817-80-80 0-39.865 29.159-72.92 67.312-79C325.6 455.98 419.81 379 532 379M295.859 624.545l8.282 30.91"/></g><title>Nose/ 6</title><path stroke="#000" stroke-linecap="round" stroke-linejoin="round" stroke-width="16" d="M673 568q-15.673 34.254-15.673 67.734c0 33.48 28.612 21.706 25.673 47.266q-2.94 25.56-58 25.044"/><title>Mouth/ 3</title><g fill-rule="evenodd" stroke="#000" stroke-linecap="round" stroke-linejoin="round" stroke-width="16"><path d="M541 770.087q41.692-.695 62.5-5.217 20.808-4.524 57.5-20.87"/><path d="M636 754.435q0 36.522-22.5 46.956t-65-31.304M477.142 774q-5.295-12.47 2.5-26.5 7.794-14.03 22.5-18.5"/></g><path stroke="#000" stroke-linecap="round" stroke-linejoin="round" stroke-width="12" d="M660 536.5s8.471-3.5 19.765-3.5 23.046 5 43.294 5S756 533 756 533m-138 3.5s-8.471-3.5-19.765-3.5-23.046 5-43.294 5S522 533 522 533"/><title>Eyebrows/ 1</title><path stroke="#000" stroke-linecap="square" stroke-linejoin="round" stroke-width="20" d="M521 506q19.333-16 45-16t45 16m56 0q19.333-16 45-16t45 16"/><title>Glasses/ 4</title><g fill="#000" fill-rule="evenodd" stroke="#000" stroke-linecap="round" stroke-linejoin="round" stroke-width="4"><path d="M518.15 483.233c18.522 3.897 54.111 17.39 95.54 30.829l.774.246q8.48 2.647 23.746 5.287v17.39q-7.572 3.786-9.3 7.114c-14.374 27.666-41.43 45.847-82.86 36.362-56.283-12.887-75.249-80.628-76.94-91.694-1.69-11.067 16.095-12.464 49.04-5.534m290.74 5.534c-1.691 11.066-20.657 78.807-76.94 91.694-41.43 9.485-68.486-8.696-82.86-36.362q-1.68-3.238-8.895-6.91l-.405-.204v-17.39l1.406-.246q14.948-2.64 23.114-5.287l2.478-.807c40.368-13.167 74.91-26.203 93.063-30.022l1.958-.405c31.69-6.465 48.738-4.906 47.08 5.939m-305.96 17.39c-16.91 19.761 15.22 62.447 47.348 70.351 32.129 7.905 73.558-16.6 65.949-39.523s-87.932-49.009-113.297-30.828m272.14 0c-25.365-18.18-105.687 7.905-113.297 30.828s33.82 47.428 65.949 39.523 64.258-50.59 47.348-70.351"/><path d="m488 509-195 32-4 9 199-20z"/></g><title>Hairstyle/ 0</title><title>Accessories/ 0</title><title>Details/ 0</title><title>Beard/ 0</title></svg>