<svg xmlns="http://www.w3.org/2000/svg" fill="none" viewBox="90 90 900 900"><g fill="#fff"><title>Face/ 13</title><path fill-rule="evenodd" stroke="#000" stroke-linecap="round" stroke-linejoin="round" stroke-width="24" d="M532 379c132.548 0 240 107.452 240 240 0 23.16 21.235 47.245 15.453 69.98C773.583 743.517 772 919 608 919c-159.371 0-234.524-102.99-287.81-200.415A81 81 0 0 1 312 719c-44.183 0-80-35.817-80-80 0-39.865 29.159-72.92 67.312-79C325.6 455.98 419.81 379 532 379M295.859 624.545l8.282 30.91"/></g><title>Nose/ 6</title><path stroke="#000" stroke-linecap="round" stroke-linejoin="round" stroke-width="16" d="M673 568q-15.673 34.254-15.673 67.734c0 33.48 28.612 21.706 25.673 47.266q-2.94 25.56-58 25.044"/><path stroke="#000" stroke-linecap="round" stroke-linejoin="round" stroke-width="16" d="M529 741s66 14 98 14 62-9.472 62-9.472S688 814 618 814s-89-73-89-73" clip-rule="evenodd"/><path stroke="#000" stroke-linecap="round" stroke-linejoin="round" stroke-width="12" d="M660 536.5s8.471-3.5 19.765-3.5 23.046 5 43.294 5S756 533 756 533m-138 3.5s-8.471-3.5-19.765-3.5-23.046 5-43.294 5S522 533 522 533"/><title>Eyebrows/ 10</title><path fill="#000" fill-rule="evenodd" stroke="#000" stroke-linecap="round" stroke-linejoin="round" stroke-width="16" d="M757 487.2c0 7.2-21.333 7.2-40 7.2s-56 3.6-56 0 33.986-14.4 56-14.4h3.27c20.498.018 36.73.36 36.73 7.2M561 480c22.014 0 56 10.8 56 14.4s-37.333 0-56 0-40 0-40-7.2c0-6.84 16.232-7.182 36.73-7.2Z"/><title>Glasses/ 9</title><g fill="#000" fill-rule="evenodd" stroke="#000" stroke-linecap="round" stroke-linejoin="round" stroke-width="4"><path d="M518.15 471.21c18.522 4.796 54.111 21.404 95.54 37.943l.774.303q8.48 3.258 23.746 6.507v21.403q-7.572 4.66-9.3 8.756c-14.374 34.05-41.43 56.427-82.86 44.752-56.283-15.86-75.249-99.233-76.94-112.853-1.69-13.62 16.095-15.34 49.04-6.81m241.7 0 1.96-.5c31.688-7.955 48.737-6.037 47.08 7.31-1.691 13.62-20.657 96.994-76.94 112.854-41.43 11.675-68.486-10.701-82.86-44.752q-1.68-3.984-8.895-8.504l-.405-.252v-21.403l1.406-.302q14.948-3.25 23.114-6.508l2.478-.993c40.368-16.206 74.91-32.25 93.063-36.95"/><path d="m488 509-195 32-4 9 199-20z"/></g><title>Hairstyle/ 20</title><path fill="#000" fill-rule="evenodd" stroke="#000" stroke-linecap="round" stroke-linejoin="round" stroke-width="12" d="M232 126c60.22 0 112.152 35.487 136.024 86.69C410.24 194.447 459.304 186 515 186c114.126 0 188.748 50.595 232 118q48.126 75 39 200l-3.659-.839Q693.22 482.641 655 465l-1.572-.729Q614.6 446.2 546 407q-34.075 86.1-61 122-36 48-106 96-15.543-31.917-21-39c-5.457-7.082-24.68-22.92-58-19-22.667 2.667-51 29-60 58-23.971-55.918-41.49-148.252-32.558-201.001C136.283 412.282 82 350.48 82 276c0-82.843 67.157-150 150-150"/><title>Accessories/ 0</title><title>Details/ 0</title><title>Beard/ 0</title></svg>